<svg width="150" height="150" viewBox="0 0 150 150" fill="none" xmlns="http://www.w3.org/2000/svg">
<path d="M35.9748 92.4442C33.0103 92.3264 30.5849 91.5152 28.6885 90.0086C28.3265 89.7208 27.4641 88.8579 27.1748 88.4939C26.4057 87.5269 25.8829 86.5858 25.5342 85.5416C24.4611 82.3274 25.0134 78.1096 27.1139 73.4807C28.9123 69.5178 31.6875 65.5873 36.5291 60.1437C37.2423 59.3426 39.3661 57 39.3798 57C39.3849 57 39.2692 57.2005 39.1235 57.4447C37.8646 59.5533 36.7875 62.0371 36.2007 64.1873C35.258 67.6376 35.3717 70.5985 36.5337 72.8944C37.3352 74.4761 38.7093 75.8462 40.2545 76.6036C42.9595 77.9289 46.9199 78.0386 51.7565 76.9244C52.0895 76.8472 68.59 72.467 88.4245 67.1904C108.259 61.9132 124.49 57.599 124.493 57.6025C124.498 57.6071 78.4113 77.3279 54.487 87.5589C50.6981 89.1787 49.6849 89.5878 47.9037 90.2132C43.3504 91.8122 39.2717 92.5751 35.9748 92.4442Z" fill="#F9F9F9"/>
</svg>
